<svg width="129" height="44" viewBox="0 0 129 44" fill="none" xmlns="http://www.w3.org/2000/svg">
<path d="M98.5285 39.3104H102.008V40.3804H98.5285V39.3104ZM98.6285 42.3104H102.578V43.4004H97.3285V36.4004H102.438V37.4904H98.6285V42.3104Z" fill="white"/>
<path d="M84.8293 39.3104H88.3093V40.3804H84.8293V39.3104ZM84.9293 42.3104H88.8793V43.4004H83.6293V36.4004H88.7393V37.4904H84.9293V42.3104Z" fill="white"/>
<path d="M71.4521 39.6204H74.9421V40.7204H71.4521V39.6204ZM71.5621 43.4004H70.2621V36.4004H75.3721V37.4904H71.5621V43.4004Z" fill="white"/>
<path d="M58.0849 39.6204H61.5749V40.7204H58.0849V39.6204ZM58.1949 43.4004H56.8949V36.4004H62.0049V37.4904H58.1949V43.4004Z" fill="white"/>
<path d="M44.7569 43.5008C44.2103 43.5008 43.7069 43.4108 43.2469 43.2308C42.7869 43.0508 42.3869 42.8008 42.0469 42.4808C41.7069 42.1541 41.4436 41.7741 41.2569 41.3408C41.0703 40.9008 40.9769 40.4208 40.9769 39.9008C40.9769 39.3808 41.0703 38.9041 41.2569 38.4708C41.4436 38.0308 41.7069 37.6508 42.0469 37.3308C42.3869 37.0041 42.7869 36.7508 43.2469 36.5708C43.7069 36.3908 44.2069 36.3008 44.7469 36.3008C45.2936 36.3008 45.7936 36.3908 46.2469 36.5708C46.7069 36.7508 47.1069 37.0041 47.4469 37.3308C47.7869 37.6508 48.0503 38.0308 48.2369 38.4708C48.4236 38.9041 48.5169 39.3808 48.5169 39.9008C48.5169 40.4208 48.4236 40.9008 48.2369 41.3408C48.0503 41.7808 47.7869 42.1608 47.4469 42.4808C47.1069 42.8008 46.7069 43.0508 46.2469 43.2308C45.7936 43.4108 45.2969 43.5008 44.7569 43.5008ZM44.7469 42.3608C45.1003 42.3608 45.4269 42.3008 45.7269 42.1808C46.0269 42.0608 46.2869 41.8908 46.5069 41.6708C46.7269 41.4441 46.8969 41.1841 47.0169 40.8908C47.1436 40.5908 47.2069 40.2608 47.2069 39.9008C47.2069 39.5408 47.1436 39.2141 47.0169 38.9208C46.8969 38.6208 46.7269 38.3608 46.5069 38.1408C46.2869 37.9141 46.0269 37.7408 45.7269 37.6208C45.4269 37.5008 45.1003 37.4408 44.7469 37.4408C44.3936 37.4408 44.0669 37.5008 43.7669 37.6208C43.4736 37.7408 43.2136 37.9141 42.9869 38.1408C42.7669 38.3608 42.5936 38.6208 42.4669 38.9208C42.3469 39.2141 42.2869 39.5408 42.2869 39.9008C42.2869 40.2541 42.3469 40.5808 42.4669 40.8808C42.5936 41.1808 42.7669 41.4441 42.9869 41.6708C43.2069 41.8908 43.4669 42.0608 43.7669 42.1808C44.0669 42.3008 44.3936 42.3608 44.7469 42.3608Z" fill="white"/>
<path d="M30.5978 43.5008C30.0645 43.5008 29.5678 43.4141 29.1078 43.2408C28.6545 43.0608 28.2578 42.8108 27.9178 42.4908C27.5845 42.1641 27.3245 41.7808 27.1378 41.3408C26.9511 40.9008 26.8578 40.4208 26.8578 39.9008C26.8578 39.3808 26.9511 38.9008 27.1378 38.4608C27.3245 38.0208 27.5878 37.6408 27.9278 37.3208C28.2678 36.9941 28.6645 36.7441 29.1178 36.5708C29.5711 36.3908 30.0678 36.3008 30.6078 36.3008C31.1811 36.3008 31.7045 36.4008 32.1778 36.6008C32.6511 36.7941 33.0511 37.0841 33.3778 37.4708L32.5378 38.2608C32.2845 37.9874 32.0011 37.7841 31.6878 37.6508C31.3745 37.5108 31.0345 37.4408 30.6678 37.4408C30.3011 37.4408 29.9645 37.5008 29.6578 37.6208C29.3578 37.7408 29.0945 37.9108 28.8678 38.1308C28.6478 38.3508 28.4745 38.6108 28.3478 38.9108C28.2278 39.2108 28.1678 39.5408 28.1678 39.9008C28.1678 40.2608 28.2278 40.5908 28.3478 40.8908C28.4745 41.1908 28.6478 41.4508 28.8678 41.6708C29.0945 41.8908 29.3578 42.0608 29.6578 42.1808C29.9645 42.3008 30.3011 42.3608 30.6678 42.3608C31.0345 42.3608 31.3745 42.2941 31.6878 42.1608C32.0011 42.0208 32.2845 41.8108 32.5378 41.5308L33.3778 42.3308C33.0511 42.7108 32.6511 43.0008 32.1778 43.2008C31.7045 43.4008 31.1778 43.5008 30.5978 43.5008Z" fill="white"/>
<path d="M106.145 21.3008L115.595 0.300781H119.435L128.915 21.3008H124.835L116.705 2.37078H118.265L110.165 21.3008H106.145ZM110.495 16.4408L111.545 13.3808H122.885L123.935 16.4408H110.495Z" fill="white"/>
<path d="M87.3828 21.3008L78.2028 0.300781H82.4328L90.6228 19.2908H88.1928L96.4728 0.300781H100.373L91.2228 21.3008H87.3828Z" fill="white"/>
<path d="M57.5078 21.3008V0.300781H61.4078V18.0008H72.3878V21.3008H57.5078Z" fill="white"/>
<path d="M24.8672 21.3008L34.3172 0.300781H38.1572L47.6372 21.3008H43.5572L35.4272 2.37078H36.9872L28.8872 21.3008H24.8672ZM29.2172 16.4408L30.2672 13.3808H41.6072L42.6572 16.4408H29.2172Z" fill="white"/>
<path d="M8.28 21.6C6.64 21.6 5.07 21.37 3.57 20.91C2.07 20.43 0.88 19.82 0 19.08L1.35 16.05C2.19 16.71 3.23 17.26 4.47 17.7C5.71 18.14 6.98 18.36 8.28 18.36C9.38 18.36 10.27 18.24 10.95 18C11.63 17.76 12.13 17.44 12.45 17.04C12.77 16.62 12.93 16.15 12.93 15.63C12.93 14.99 12.7 14.48 12.24 14.1C11.78 13.7 11.18 13.39 10.44 13.17C9.72 12.93 8.91 12.71 8.01 12.51C7.13 12.31 6.24 12.08 5.34 11.82C4.46 11.54 3.65 11.19 2.91 10.77C2.19 10.33 1.6 9.75 1.14 9.03C0.68 8.31 0.45 7.39 0.45 6.27C0.45 5.13 0.75 4.09 1.35 3.15C1.97 2.19 2.9 1.43 4.14 0.87C5.4 0.29 6.99 0 8.91 0C10.17 0 11.42 0.160001 12.66 0.480001C13.9 0.800001 14.98 1.26 15.9 1.86L14.67 4.89C13.73 4.33 12.76 3.92 11.76 3.66C10.76 3.38 9.8 3.24 8.88 3.24C7.8 3.24 6.92 3.37 6.24 3.63C5.58 3.89 5.09 4.23 4.77 4.65C4.47 5.07 4.32 5.55 4.32 6.09C4.32 6.73 4.54 7.25 4.98 7.65C5.44 8.03 6.03 8.33 6.75 8.55C7.49 8.77 8.31 8.99 9.21 9.21C10.11 9.41 11 9.64 11.88 9.9C12.78 10.16 13.59 10.5 14.31 10.92C15.05 11.34 15.64 11.91 16.08 12.63C16.54 13.35 16.77 14.26 16.77 15.36C16.77 16.48 16.46 17.52 15.84 18.48C15.24 19.42 14.31 20.18 13.05 20.76C11.79 21.32 10.2 21.6 8.28 21.6Z" fill="white"/>
</svg>
