<svg width="100" height="30" viewBox="0 0 100 30" fill="none" xmlns="http://www.w3.org/2000/svg">
<path d="M29.1272 23.4451C29.7079 23.4451 30.2263 23.547 30.6813 23.751C31.1422 23.955 31.5249 24.2498 31.8302 24.6337L30.6988 25.6605C30.4953 25.4205 30.2708 25.2362 30.0253 25.1102C29.786 24.9844 29.5158 24.922 29.2167 24.922C28.9595 24.9221 28.7234 24.9647 28.5081 25.0486C28.2926 25.1327 28.1059 25.2559 27.9503 25.4179C27.8011 25.5737 27.6821 25.7625 27.5925 25.9841C27.5087 26.2061 27.4662 26.4525 27.4662 26.7225C27.4662 26.9926 27.5087 27.239 27.5925 27.461C27.6821 27.6825 27.8011 27.8743 27.9503 28.036C28.106 28.192 28.2926 28.3124 28.5081 28.3964C28.7234 28.4804 28.9595 28.523 29.2167 28.523C29.5161 28.523 29.7858 28.4592 30.0253 28.3331C30.2707 28.2071 30.4953 28.0246 30.6988 27.7845L31.8302 28.8114C31.5249 29.1892 31.1421 29.4841 30.6813 29.6941C30.2263 29.898 29.7079 30 29.1272 30C28.6305 30 28.17 29.9204 27.7451 29.7644C27.326 29.6023 26.9602 29.3745 26.6488 29.0804C26.3438 28.7865 26.1032 28.4423 25.9297 28.0465C25.7561 27.6445 25.6701 27.2026 25.6701 26.7225C25.6701 26.2424 25.7561 25.8034 25.9297 25.4073C26.1033 25.0054 26.3436 24.6569 26.6488 24.3629C26.9601 24.069 27.3262 23.8437 27.7451 23.6877C28.1699 23.5259 28.6307 23.4451 29.1272 23.4451ZM37.9078 23.4451C38.4162 23.4451 38.88 23.5259 39.2988 23.6877C39.7238 23.8498 40.0925 24.0822 40.4038 24.3823C40.715 24.6763 40.9581 25.0219 41.1317 25.4179C41.3111 25.8138 41.4001 26.2487 41.4001 26.7225C41.4001 27.1963 41.3111 27.6341 41.1317 28.036C40.9581 28.432 40.715 28.7776 40.4038 29.0716C40.0925 29.3657 39.7238 29.5936 39.2988 29.7556C38.8799 29.9175 38.4164 29.9999 37.9078 30C37.4049 30 36.9402 29.9176 36.5151 29.7556C36.0902 29.5936 35.7186 29.3656 35.4014 29.0716C35.0902 28.7716 34.847 28.4231 34.6734 28.0272C34.5001 27.6313 34.4139 27.1963 34.4138 26.7225C34.4138 26.2488 34.5001 25.8137 34.6734 25.4179C34.847 25.022 35.0902 24.6762 35.4014 24.3823C35.7187 24.0822 36.0901 23.8498 36.5151 23.6877C36.9402 23.5257 37.405 23.4451 37.9078 23.4451ZM49.5071 24.9484H46.3552V26.3357H49.13V27.7125H46.3552V29.8734H44.5766V23.5717H49.5071V24.9484ZM57.5142 24.9484H54.3622V26.3357H57.1371V27.7125H54.3622V29.8734H52.5837V23.5717H57.5142V24.9484ZM65.5213 24.9484H62.3518V26.0122H65.1441V27.3432H62.3518V28.4967H65.637V29.8734H60.5907V23.5717H65.5213V24.9484ZM73.8002 24.9484H70.6307V26.0122H73.4231V27.3432H70.6307V28.4967H73.916V29.8734H68.8697V23.5717H73.8002V24.9484ZM37.9078 24.922C37.6685 24.922 37.4438 24.9647 37.2343 25.0486C37.0307 25.1327 36.8497 25.2558 36.6941 25.4179C36.5448 25.5737 36.4259 25.7625 36.3362 25.9841C36.2524 26.2001 36.2099 26.4465 36.2099 26.7225C36.21 26.9926 36.2524 27.239 36.3362 27.461C36.4259 27.6825 36.5449 27.8743 36.6941 28.036C36.8497 28.192 37.0307 28.3124 37.2343 28.3964C37.4437 28.4804 37.6685 28.523 37.9078 28.523C38.1471 28.523 38.3692 28.4804 38.5726 28.3964C38.7818 28.3124 38.9616 28.1918 39.1111 28.036C39.2664 27.8741 39.387 27.6828 39.4707 27.461C39.5605 27.239 39.604 26.9926 39.604 26.7225C39.604 26.4465 39.5604 26.2001 39.4707 25.9841C39.387 25.7623 39.2664 25.5738 39.1111 25.4179C38.9616 25.2561 38.7818 25.1327 38.5726 25.0486C38.3692 24.9647 38.1471 24.9221 37.9078 24.922ZM7.76337 0C8.78333 0 9.78903 0.107562 10.7803 0.323526C11.7716 0.539552 12.6632 0.870541 13.4534 1.31696L11.9239 5.01289C11.1769 4.6385 10.451 4.35616 9.74716 4.16891C9.05745 3.98166 8.38049 3.88934 7.71952 3.88934C7.23152 3.88939 6.84379 3.93138 6.55661 4.0177C6.26943 4.10406 6.06152 4.22018 5.93218 4.36408C5.81733 4.508 5.75863 4.66615 5.75853 4.83882C5.75853 5.09805 5.90943 5.3081 6.21107 5.46653C6.51279 5.61056 6.90828 5.73319 7.39678 5.83402C7.89968 5.93484 8.44591 6.04231 9.03503 6.15754C9.63851 6.27277 10.235 6.43063 10.8241 6.63228C11.4132 6.83394 11.9528 7.10102 12.4413 7.43231C12.9439 7.76354 13.3465 8.19547 13.6481 8.72817C13.9498 9.2611 14.1006 9.92463 14.1006 10.7168C14.1005 11.6384 13.8341 12.4887 13.3025 13.2663C12.7853 14.0294 12.0091 14.6479 10.975 15.1231C9.94047 15.584 8.64012 15.8158 7.07404 15.8158C5.80968 15.8158 4.58807 15.6713 3.40991 15.3833C2.23173 15.0952 1.26153 14.7206 0.5 14.2598L2.13825 10.5427C2.85669 10.9604 3.65422 11.2997 4.53072 11.559C5.42122 11.8038 6.28307 11.9264 7.11614 11.9265C7.60468 11.9265 7.98674 11.898 8.25975 11.8403C8.54682 11.7684 8.7549 11.6741 8.88418 11.559C9.01341 11.4295 9.07878 11.2781 9.07888 11.1054C9.07888 10.8319 8.92777 10.615 8.62634 10.4566C8.3246 10.2981 7.92074 10.1688 7.41783 10.068C6.92952 9.95282 6.39116 9.83677 5.80238 9.7216C5.21333 9.59198 4.6167 9.42738 4.01329 9.22576C3.42416 9.02411 2.87795 8.75703 2.37504 8.42574C1.88659 8.09449 1.49104 7.66273 1.18933 7.12988C0.887643 6.58264 0.736854 5.90545 0.736792 5.09905C0.736792 4.16279 0.99654 3.31293 1.51382 2.54953C2.04547 1.77174 2.82791 1.15192 3.86244 0.691009C4.91133 0.230117 6.21161 9.75119e-06 7.76337 0ZM37.5553 15.4695H32.2967L31.2864 12.8338H25.5473L24.537 15.4695H19.3644L25.9595 0.346384H30.9602L37.5553 15.4695ZM48.8406 11.5151H55.6514V15.4695H43.754V0.346384H48.8406V11.5151ZM68.9048 9.1695L72.5987 0.346384H77.5994L71.22 15.4695H66.2194L59.84 0.346384H65.3143L68.9048 9.1695ZM99.5 15.4695H94.2415L93.2312 12.8338H87.492L86.4817 15.4695H81.3091L87.9042 0.346384H92.9049L99.5 15.4695ZM26.9558 9.16071H29.878L28.4169 5.34873L26.9558 9.16071ZM88.9005 9.16071H91.8227L90.3616 5.34873L88.9005 9.16071Z" fill="white"/>
</svg>
