<svg width="1250" height="98" viewBox="0 0 1250 98" fill="none" xmlns="http://www.w3.org/2000/svg">
<path d="M1199.29 38.0357H1242.66V57.7876H1199.29V38.0357ZM1201.15 74.8703H1250V95.2895H1175V1.86841H1248.26V22.2876H1201.15V74.8703Z" fill="white"/>
<path d="M1092.27 38.0357H1135.64V57.7876H1092.27V38.0357ZM1094.14 74.8703H1142.98V95.2895H1067.98V1.86841H1141.25V22.2876H1094.14V74.8703Z" fill="white"/>
<path d="M989.559 42.8402H1032.67V63.2594H989.559V42.8402ZM991.427 95.2895H965.002V1.86841H1038.27V22.2876H991.427V95.2895Z" fill="white"/>
<path d="M886.582 42.8402H929.689V63.2594H886.582V42.8402ZM888.45 95.2895H862.025V1.86841H935.294V22.2876H888.45V95.2895Z" fill="white"/>
<path d="M778.92 97.1579C771.447 97.1579 764.551 95.9568 758.234 93.5545C751.917 91.1523 746.401 87.7713 741.685 83.4117C737.059 78.9631 733.455 73.8027 730.875 67.9305C728.295 62.0583 727.005 55.6078 727.005 48.579C727.005 41.5501 728.295 35.0996 730.875 29.2275C733.455 23.3553 737.059 18.2394 741.685 13.8797C746.401 9.43108 751.917 6.00564 758.234 3.60339C764.551 1.20113 771.447 0 778.92 0C786.483 0 793.378 1.20113 799.606 3.60339C805.923 6.00564 811.395 9.43108 816.022 13.8797C820.648 18.2394 824.252 23.3553 826.832 29.2275C829.501 35.0996 830.836 41.5501 830.836 48.579C830.836 55.6078 829.501 62.1028 826.832 68.0639C824.252 73.9361 820.648 79.052 816.022 83.4117C811.395 87.7713 805.923 91.1523 799.606 93.5545C793.378 95.9568 786.483 97.1579 778.92 97.1579ZM778.92 75.2707C782.479 75.2707 785.771 74.6479 788.796 73.4023C791.91 72.1567 794.579 70.3772 796.804 68.0639C799.117 65.6617 800.897 62.8146 802.142 59.5226C803.477 56.2306 804.144 52.5827 804.144 48.579C804.144 44.4862 803.477 40.8384 802.142 37.6354C800.897 34.3434 799.117 31.5407 796.804 29.2275C794.579 26.8252 791.91 25.0013 788.796 23.7557C785.771 22.51 782.479 21.8872 778.92 21.8872C775.361 21.8872 772.025 22.51 768.911 23.7557C765.886 25.0013 763.217 26.8252 760.903 29.2275C758.679 31.5407 756.9 34.3434 755.565 37.6354C754.319 40.8384 753.697 44.4862 753.697 48.579C753.697 52.5827 754.319 56.2306 755.565 59.5226C756.9 62.8146 758.679 65.6617 760.903 68.0639C763.217 70.3772 765.886 72.1567 768.911 73.4023C772.025 74.6479 775.361 75.2707 778.92 75.2707Z" fill="white"/>
<path d="M664.462 97.1579C657.077 97.1579 650.226 96.0013 643.909 93.688C637.681 91.2858 632.254 87.9048 627.627 83.5452C623.089 79.1855 619.531 74.0696 616.95 68.1974C614.37 62.2362 613.08 55.6968 613.08 48.579C613.08 41.4612 614.37 34.9662 616.95 29.094C619.531 23.1328 623.089 17.9724 627.627 13.6128C632.254 9.25314 637.681 5.91667 643.909 3.60339C650.226 1.20113 657.077 0 664.462 0C673.092 0 680.788 1.51253 687.55 4.5376C694.401 7.56266 700.095 11.9223 704.633 17.6166L687.817 32.8308C684.792 29.2719 681.455 26.5583 677.808 24.6899C674.249 22.8214 670.245 21.8872 665.796 21.8872C661.97 21.8872 658.456 22.51 655.253 23.7557C652.05 25.0013 649.292 26.8252 646.979 29.2275C644.754 31.5407 642.975 34.3434 641.64 37.6354C640.395 40.9273 639.772 44.5752 639.772 48.579C639.772 52.5827 640.395 56.2306 641.64 59.5226C642.975 62.8146 644.754 65.6617 646.979 68.0639C649.292 70.3772 652.05 72.1567 655.253 73.4023C658.456 74.6479 661.97 75.2707 665.796 75.2707C670.245 75.2707 674.249 74.3365 677.808 72.4681C681.455 70.5997 684.792 67.886 687.817 64.3271L704.633 79.5414C700.095 85.1466 694.401 89.5063 687.55 92.6203C680.788 95.6454 673.092 97.1579 664.462 97.1579Z" fill="white"/>
<path d="M428.22 95.2895L469.458 1.86841H495.483L536.855 95.2895H509.363L477.066 14.8139H487.475L455.178 95.2895H428.22ZM450.774 77.1391L457.581 57.6541H503.224L510.03 77.1391H450.774Z" fill="white"/>
<path d="M353.808 95.2895L313.904 1.86841H342.464L376.096 82.7444H359.28L393.712 1.86841H419.87L379.833 95.2895H353.808Z" fill="white"/>
<path d="M232.564 95.2895V1.86841H258.989V74.3365H303.564V95.2895H232.564Z" fill="white"/>
<path d="M99.0879 95.2895L140.327 1.86841H166.351L207.723 95.2895H180.231L147.934 14.8139H158.344L126.047 95.2895H99.0879ZM121.642 77.1391L128.449 57.6541H174.092L180.898 77.1391H121.642Z" fill="white"/>
<path d="M39.3703 97.1579C31.7187 97.1579 24.334 96.2237 17.2162 94.3553C10.1873 92.3979 4.44862 89.9067 0 86.8816L8.67481 67.3966C12.8565 70.0658 17.661 72.2901 23.0884 74.0696C28.6046 75.7601 34.0765 76.6053 39.5038 76.6053C43.1516 76.6053 46.0877 76.2939 48.312 75.6711C50.5364 74.9593 52.1379 74.0696 53.1166 73.0019C54.1842 71.8453 54.7181 70.5107 54.7181 68.9982C54.7181 66.8628 53.7394 65.1723 51.782 63.9267C49.8246 62.6811 47.2889 61.6579 44.1748 60.8572C41.0608 60.0564 37.5909 59.2557 33.765 58.4549C30.0282 57.6542 26.2469 56.631 22.4211 55.3854C18.6842 54.1398 15.2588 52.5382 12.1447 50.5808C9.03071 48.5345 6.49499 45.9098 4.53759 42.7068C2.5802 39.4148 1.6015 35.2776 1.6015 30.2951C1.6015 24.6899 3.11404 19.6184 6.1391 15.0808C9.25314 10.5432 13.8797 6.89537 20.0188 4.13722C26.1579 1.37908 33.8095 0 42.9737 0C49.1128 0 55.1184 0.711782 60.9906 2.13534C66.9518 3.46993 72.2456 5.47181 76.8722 8.14098L68.7312 27.7594C64.2826 25.3572 59.8785 23.5777 55.5188 22.4211C51.1592 21.1755 46.933 20.5526 42.8402 20.5526C39.1924 20.5526 36.2563 20.953 34.032 21.7538C31.8077 22.4656 30.2062 23.4442 29.2275 24.6899C28.2488 25.9355 27.7594 27.359 27.7594 28.9605C27.7594 31.0069 28.6936 32.6529 30.562 33.8985C32.5194 35.0552 35.0551 36.0339 38.1692 36.8346C41.3722 37.5464 44.8421 38.3027 48.579 39.1034C52.4048 39.9042 56.1861 40.9273 59.923 42.173C63.7488 43.3296 67.2187 44.9311 70.3327 46.9775C73.4468 48.9349 75.938 51.5596 77.8064 54.8515C79.7638 58.0545 80.7425 62.1028 80.7425 66.9963C80.7425 72.4236 79.1855 77.4505 76.0715 82.0771C73.0464 86.6147 68.4643 90.2626 62.3252 93.0207C56.2751 95.7789 48.6235 97.1579 39.3703 97.1579Z" fill="white"/>
</svg>
