<svg width="1329" height="104" viewBox="0 0 1329 104" fill="none" xmlns="http://www.w3.org/2000/svg">
<path d="M1276.89 39.4H1320.57V63.2H1276.89V39.4ZM1279.13 76.08H1328.13V101H1246.65V3H1326.31V27.92H1279.13V76.08Z" fill="white"/>
<path d="M1164.49 39.4H1208.17V63.2H1164.49V39.4ZM1166.73 76.08H1215.73V101H1134.25V3H1213.91V27.92H1166.73V76.08Z" fill="white"/>
<path d="M1056.75 44.72H1099.87V69.64H1056.75V44.72ZM1058.99 101H1025.95V3H1105.61V27.92H1058.99V101Z" fill="white"/>
<path d="M948.454 44.72H991.574V69.64H948.454V44.72ZM950.694 101H917.654V3H997.314V27.92H950.694V101Z" fill="white"/>
<path d="M832.162 103.24C824.229 103.24 816.855 101.98 810.042 99.4598C803.322 96.9398 797.489 93.3931 792.542 88.8198C787.595 84.1531 783.722 78.6931 780.922 72.4398C778.215 66.1864 776.862 59.3731 776.862 51.9998C776.862 44.5331 778.215 37.7198 780.922 31.5598C783.722 25.3064 787.595 19.8931 792.542 15.3198C797.489 10.6531 803.322 7.05976 810.042 4.53976C816.855 2.01976 824.229 0.759766 832.162 0.759766C840.189 0.759766 847.562 2.01976 854.282 4.53976C861.002 7.05976 866.835 10.6531 871.782 15.3198C876.729 19.8931 880.555 25.3064 883.262 31.5598C886.062 37.7198 887.462 44.5331 887.462 51.9998C887.462 59.3731 886.062 66.1864 883.262 72.4398C880.555 78.6931 876.729 84.1531 871.782 88.8198C866.835 93.3931 861.002 96.9398 854.282 99.4598C847.562 101.98 840.189 103.24 832.162 103.24ZM832.162 76.4998C835.242 76.4998 838.089 75.9398 840.702 74.8198C843.409 73.6998 845.742 72.1131 847.702 70.0598C849.755 67.9131 851.342 65.3464 852.462 62.3598C853.582 59.2798 854.142 55.8264 854.142 51.9998C854.142 48.1731 853.582 44.7664 852.462 41.7798C851.342 38.6998 849.755 36.1331 847.702 34.0798C845.742 31.9331 843.409 30.2998 840.702 29.1798C838.089 28.0598 835.242 27.4998 832.162 27.4998C829.082 27.4998 826.189 28.0598 823.482 29.1798C820.869 30.2998 818.535 31.9331 816.482 34.0798C814.522 36.1331 812.982 38.6998 811.862 41.7798C810.742 44.7664 810.182 48.1731 810.182 51.9998C810.182 55.8264 810.742 59.2798 811.862 62.3598C812.982 65.3464 814.522 67.9131 816.482 70.0598C818.535 72.1131 820.869 73.6998 823.482 74.8198C826.189 75.9398 829.082 76.4998 832.162 76.4998Z" fill="white"/>
<path d="M711.133 103.24C703.293 103.24 696.013 102.026 689.293 99.5998C682.666 97.0798 676.88 93.5331 671.933 88.9598C667.08 84.3864 663.3 78.9731 660.593 72.7198C657.886 66.4664 656.533 59.5598 656.533 51.9998C656.533 44.4398 657.886 37.5331 660.593 31.2798C663.3 25.0264 667.08 19.6131 671.933 15.0398C676.88 10.4664 682.666 6.96643 689.293 4.53976C696.013 2.01976 703.293 0.759766 711.133 0.759766C720.746 0.759766 729.24 2.43977 736.613 5.79977C744.08 9.15976 750.24 14.0131 755.093 20.3598L734.233 38.9798C731.34 35.3398 728.12 32.5398 724.573 30.5798C721.12 28.5264 717.2 27.4998 712.813 27.4998C709.36 27.4998 706.233 28.0598 703.433 29.1798C700.633 30.2998 698.206 31.9331 696.153 34.0798C694.193 36.2264 692.653 38.8398 691.533 41.9198C690.413 44.9064 689.853 48.2664 689.853 51.9998C689.853 55.7331 690.413 59.1398 691.533 62.2198C692.653 65.2064 694.193 67.7731 696.153 69.9198C698.206 72.0664 700.633 73.6998 703.433 74.8198C706.233 75.9398 709.36 76.4998 712.813 76.4998C717.2 76.4998 721.12 75.5198 724.573 73.5598C728.12 71.5064 731.34 68.6598 734.233 65.0198L755.093 83.6398C750.24 89.8931 744.08 94.7464 736.613 98.1998C729.24 101.56 720.746 103.24 711.133 103.24Z" fill="white"/>
<path d="M458.647 101L501.487 3H533.967L576.807 101H542.647L511.007 18.68H523.887L492.247 101H458.647ZM484.127 83.92L492.527 60.12H537.607L546.007 83.92H484.127Z" fill="white"/>
<path d="M377.434 101L335.994 3H371.554L405.294 85.74H384.154L418.874 3H451.354L409.914 101H377.434Z" fill="white"/>
<path d="M248.317 101V3H281.357V75.38H325.597V101H248.317Z" fill="white"/>
<path d="M106.684 101L149.524 3H182.004L224.844 101H190.684L159.044 18.68H171.924L140.284 101H106.684ZM132.164 83.92L140.564 60.12H185.644L194.044 83.92H132.164Z" fill="white"/>
<path d="M43.6524 103.24C35.4391 103.24 27.5057 102.306 19.8524 100.44C12.1991 98.5731 5.89906 96.1464 0.952393 93.1598L11.5924 69.0798C16.2591 71.7864 21.4391 73.9798 27.1324 75.6598C32.9191 77.2464 38.5191 78.0398 43.9324 78.0398C47.1057 78.0398 49.5791 77.8531 51.3524 77.4798C53.2191 77.0131 54.5724 76.4064 55.4124 75.6598C56.2524 74.8198 56.6724 73.8398 56.6724 72.7198C56.6724 70.9464 55.6924 69.5464 53.7324 68.5198C51.7724 67.4931 49.1591 66.6531 45.8924 65.9998C42.7191 65.2531 39.219 64.5064 35.3924 63.7598C31.5657 62.9198 27.6924 61.8464 23.7724 60.5398C19.9457 59.2331 16.3991 57.5064 13.1324 55.3598C9.95905 53.2131 7.39239 50.4131 5.43239 46.9598C3.47239 43.4131 2.49239 39.0264 2.49239 33.7998C2.49239 27.7331 4.17238 22.2264 7.53238 17.2798C10.9857 12.2398 16.0724 8.22643 22.7924 5.23977C29.6057 2.2531 38.0524 0.759766 48.1324 0.759766C54.7591 0.759766 61.2924 1.45977 67.7324 2.85976C74.1724 4.25976 79.9591 6.40643 85.0924 9.29976L75.1524 33.2398C70.2991 30.8131 65.5857 28.9931 61.0124 27.7798C56.5324 26.5664 52.1457 25.9598 47.8524 25.9598C44.6791 25.9598 42.1591 26.2398 40.2924 26.7998C38.4257 27.3598 37.0724 28.1064 36.2324 29.0398C35.4857 29.9731 35.1124 30.9998 35.1124 32.1198C35.1124 33.7998 36.0924 35.1531 38.0524 36.1798C40.0124 37.1131 42.579 37.9064 45.7524 38.5598C49.019 39.2131 52.5657 39.9131 56.3924 40.6598C60.3124 41.4064 64.1857 42.4331 68.0124 43.7398C71.8391 45.0464 75.3391 46.7731 78.5124 48.9198C81.7791 51.0664 84.3924 53.8664 86.3524 57.3198C88.3124 60.7731 89.2924 65.0664 89.2924 70.1998C89.2924 76.1731 87.5657 81.6798 84.1124 86.7198C80.7524 91.6664 75.7124 95.6798 68.9924 98.7598C62.2724 101.746 53.8257 103.24 43.6524 103.24Z" fill="white"/>
</svg>
