<svg width="1282" height="102" viewBox="0 0 1282 102" fill="none" xmlns="http://www.w3.org/2000/svg">
<path d="M38.7018 101.4C31.0484 101.4 23.7218 100.326 16.7218 98.1796C9.72177 95.9396 4.16843 93.093 0.0617676 89.6396L6.36177 75.4996C10.2818 78.5796 15.1351 81.1463 20.9218 83.1996C26.7084 85.2529 32.6351 86.2796 38.7018 86.2796C43.8351 86.2796 47.9884 85.7196 51.1618 84.5996C54.3351 83.4796 56.6684 81.9863 58.1618 80.1196C59.6551 78.1596 60.4018 75.9663 60.4018 73.5396C60.4018 70.5529 59.3284 68.1729 57.1818 66.3996C55.0351 64.5329 52.2351 63.0863 48.7818 62.0596C45.4218 60.9396 41.6418 59.9129 37.4418 58.9796C33.3351 58.0463 29.1818 56.9729 24.9818 55.7596C20.8751 54.4529 17.0951 52.8196 13.6418 50.8596C10.2818 48.8063 7.52843 46.0996 5.38177 42.7396C3.2351 39.3796 2.16177 35.0863 2.16177 29.8596C2.16177 24.5396 3.56177 19.6863 6.36177 15.2996C9.2551 10.8196 13.5951 7.27294 19.3818 4.65961C25.2618 1.95294 32.6818 0.599609 41.6418 0.599609C47.5218 0.599609 53.3551 1.34628 59.1418 2.83961C64.9284 4.33294 69.9684 6.47961 74.2618 9.27961L68.5218 23.4196C64.1351 20.8063 59.6084 18.8929 54.9418 17.6796C50.2751 16.3729 45.7951 15.7196 41.5018 15.7196C36.4618 15.7196 32.3551 16.3263 29.1818 17.5396C26.1018 18.7529 23.8151 20.3396 22.3218 22.2996C20.9218 24.2596 20.2218 26.4996 20.2218 29.0196C20.2218 32.0063 21.2484 34.4329 23.3018 36.2996C25.4484 38.0729 28.2018 39.4729 31.5618 40.4996C35.0151 41.5263 38.8418 42.5529 43.0418 43.5796C47.2418 44.5129 51.3951 45.5863 55.5018 46.7996C59.7018 48.0129 63.4818 49.5996 66.8418 51.5596C70.2951 53.5196 73.0484 56.1796 75.1018 59.5396C77.2484 62.8996 78.3218 67.1463 78.3218 72.2796C78.3218 77.5063 76.8751 82.3596 73.9818 86.8396C71.1818 91.2263 66.8418 94.7729 60.9618 97.4796C55.0818 100.093 47.6618 101.4 38.7018 101.4Z" fill="white"/>
<path d="M100.709 99.9996L144.809 1.99961H162.729L206.969 99.9996H187.929L149.989 11.6596H157.269L119.469 99.9996H100.709ZM121.009 77.3196L125.909 63.0396H178.829L183.729 77.3196H121.009Z" fill="white"/>
<path d="M237.632 99.9996V1.99961H255.832V84.5996H307.072V99.9996H237.632Z" fill="white"/>
<path d="M361.648 99.9996L318.808 1.99961H338.548L376.768 90.6196H365.428L404.068 1.99961H422.268L379.568 99.9996H361.648Z" fill="white"/>
<path d="M433.805 99.9996L477.905 1.99961H495.825L540.065 99.9996H521.025L483.085 11.6596H490.365L452.565 99.9996H433.805ZM454.105 77.3196L459.005 63.0396H511.925L516.825 77.3196H454.105Z" fill="white"/>
<path d="M672.979 101.4C665.513 101.4 658.559 100.186 652.119 97.7596C645.773 95.2396 640.219 91.7396 635.459 87.2596C630.793 82.6863 627.153 77.3196 624.539 71.1596C621.926 64.9996 620.619 58.2796 620.619 50.9996C620.619 43.7196 621.926 36.9996 624.539 30.8396C627.153 24.6796 630.839 19.3596 635.599 14.8796C640.359 10.3063 645.913 6.80628 652.259 4.37961C658.606 1.85961 665.559 0.599609 673.119 0.599609C681.146 0.599609 688.473 1.99961 695.099 4.79961C701.726 7.50628 707.326 11.5663 711.899 16.9796L700.139 28.0396C696.593 24.2129 692.626 21.3663 688.239 19.4996C683.853 17.5396 679.093 16.5596 673.959 16.5596C668.826 16.5596 664.113 17.3996 659.819 19.0796C655.619 20.7596 651.933 23.1396 648.759 26.2196C645.679 29.2996 643.253 32.9396 641.479 37.1396C639.799 41.3396 638.959 45.9596 638.959 50.9996C638.959 56.0396 639.799 60.6596 641.479 64.8596C643.253 69.0596 645.679 72.6996 648.759 75.7796C651.933 78.8596 655.619 81.2396 659.819 82.9196C664.113 84.5996 668.826 85.4396 673.959 85.4396C679.093 85.4396 683.853 84.5063 688.239 82.6396C692.626 80.6796 696.593 77.7396 700.139 73.8196L711.899 85.0196C707.326 90.3396 701.726 94.3996 695.099 97.1996C688.473 99.9996 681.099 101.4 672.979 101.4Z" fill="white"/>
<path d="M791.407 101.4C783.754 101.4 776.707 100.14 770.267 97.6196C763.827 95.0996 758.227 91.5996 753.467 87.1196C748.707 82.5463 745.021 77.2263 742.407 71.1596C739.794 64.9996 738.487 58.2796 738.487 50.9996C738.487 43.7196 739.794 37.0463 742.407 30.9796C745.021 24.8196 748.707 19.4996 753.467 15.0196C758.227 10.4463 763.827 6.89961 770.267 4.37961C776.707 1.85961 783.707 0.599609 791.267 0.599609C798.921 0.599609 805.921 1.85961 812.267 4.37961C818.707 6.89961 824.307 10.4463 829.067 15.0196C833.827 19.4996 837.514 24.8196 840.127 30.9796C842.741 37.0463 844.047 43.7196 844.047 50.9996C844.047 58.2796 842.741 64.9996 840.127 71.1596C837.514 77.3196 833.827 82.6396 829.067 87.1196C824.307 91.5996 818.707 95.0996 812.267 97.6196C805.921 100.14 798.967 101.4 791.407 101.4ZM791.267 85.4396C796.214 85.4396 800.787 84.5996 804.987 82.9196C809.187 81.2396 812.827 78.8596 815.907 75.7796C818.987 72.6063 821.367 68.9663 823.047 64.8596C824.821 60.6596 825.707 56.0396 825.707 50.9996C825.707 45.9596 824.821 41.3863 823.047 37.2796C821.367 33.0796 818.987 29.4396 815.907 26.3596C812.827 23.1863 809.187 20.7596 804.987 19.0796C800.787 17.3996 796.214 16.5596 791.267 16.5596C786.321 16.5596 781.747 17.3996 777.547 19.0796C773.441 20.7596 769.801 23.1863 766.627 26.3596C763.547 29.4396 761.121 33.0796 759.347 37.2796C757.667 41.3863 756.827 45.9596 756.827 50.9996C756.827 55.9463 757.667 60.5196 759.347 64.7196C761.121 68.9196 763.547 72.6063 766.627 75.7796C769.707 78.8596 773.347 81.2396 777.547 82.9196C781.747 84.5996 786.321 85.4396 791.267 85.4396Z" fill="white"/>
<path d="M898.199 47.0796H947.059V62.4796H898.199V47.0796ZM899.739 99.9996H881.539V1.99961H953.079V17.2596H899.739V99.9996Z" fill="white"/>
<path d="M1005.54 47.0796H1054.4V62.4796H1005.54V47.0796ZM1007.08 99.9996H988.88V1.99961H1060.42V17.2596H1007.08V99.9996Z" fill="white"/>
<path d="M1113.02 42.7396H1161.74V57.7196H1113.02V42.7396ZM1114.42 84.7396H1169.72V99.9996H1096.22V1.99961H1167.76V17.2596H1114.42V84.7396Z" fill="white"/>
<path d="M1225.01 42.7396H1273.73V57.7196H1225.01V42.7396ZM1226.41 84.7396H1281.71V99.9996H1208.21V1.99961H1279.75V17.2596H1226.41V84.7396Z" fill="white"/>
</svg>
